<svg width="21" height="19" viewBox="0 0 21 19" fill="none" xmlns="http://www.w3.org/2000/svg">
<path d="M10.125 7.5625C10.125 4.78516 7.83984 2.5 5.0625 2.5C2.25 2.5 0 4.78516 0 7.5625C0 10.0938 1.79297 12.168 4.21875 12.5547V14.5938H2.67188C2.42578 14.5938 2.25 14.8047 2.25 15.0156V15.8594C2.25 16.1055 2.42578 16.2812 2.67188 16.2812H4.21875V17.8281C4.21875 18.0742 4.39453 18.25 4.64062 18.25H5.48438C5.69531 18.25 5.90625 18.0742 5.90625 17.8281V16.2812H7.45312C7.66406 16.2812 7.875 16.1055 7.875 15.8594V15.0156C7.875 14.8047 7.66406 14.5938 7.45312 14.5938H5.90625V12.5547C8.29688 12.168 10.125 10.0938 10.125 7.5625ZM1.6875 7.5625C1.6875 5.73438 3.19922 4.1875 5.0625 4.1875C6.89062 4.1875 8.4375 5.73438 8.4375 7.5625C8.4375 9.42578 6.89062 10.9375 5.0625 10.9375C3.19922 10.9375 1.6875 9.42578 1.6875 7.5625ZM20.25 0.671875C20.25 0.460938 20.0391 0.25 19.8281 0.25H17.6133C17.2266 0.25 17.0156 0.707031 17.2969 0.988281L17.8242 1.48047L15.8555 3.44922C15.0117 2.85156 14.0273 2.5 12.9375 2.5C11.7422 2.5 10.6523 2.92188 9.77344 3.625C10.1602 4.04688 10.4414 4.53906 10.6875 5.06641C11.2852 4.53906 12.0586 4.22266 12.9375 4.22266C14.7656 4.22266 16.3125 5.73438 16.3125 7.59766C16.3125 9.42578 14.7656 10.9727 12.9375 10.9727C12.0586 10.9727 11.2852 10.6211 10.6875 10.1289C10.4414 10.6211 10.1602 11.1133 9.77344 11.5703C10.6523 12.2383 11.7422 12.625 12.9375 12.625C15.7148 12.625 18 10.375 18 7.5625C18 6.47266 17.6484 5.48828 17.0508 4.64453L19.0195 2.67578L19.5117 3.20312C19.793 3.44922 20.25 3.27344 20.25 2.88672V0.671875Z" fill="#16072E"/>
</svg>
