<svg width="14" height="15" viewBox="0 0 14 15" fill="none" xmlns="http://www.w3.org/2000/svg">
<path opacity="0.4" d="M13.7812 7.3125H12.2227C12.0039 4.76953 9.98047 2.74609 7.4375 2.52734V0.96875C7.4375 0.859375 7.32812 0.75 7.21875 0.75H6.78125C6.64453 0.75 6.5625 0.859375 6.5625 0.96875V2.52734C3.99219 2.74609 1.96875 4.76953 1.75 7.3125H0.21875C0.0820312 7.3125 0 7.42188 0 7.53125V7.96875C0 8.10547 0.0820312 8.1875 0.21875 8.1875H1.75C1.96875 10.7578 3.99219 12.7812 6.5625 13V14.5312C6.5625 14.668 6.64453 14.75 6.78125 14.75H7.21875C7.32812 14.75 7.4375 14.668 7.4375 14.5312V13C9.98047 12.7812 12.0039 10.7578 12.2227 8.1875H13.7812C13.8906 8.1875 14 8.10547 14 7.96875V7.53125C14 7.42188 13.8906 7.3125 13.7812 7.3125ZM7 12.125C4.56641 12.125 2.625 10.1836 2.625 7.75C2.625 5.34375 4.56641 3.375 7 3.375C9.40625 3.375 11.375 5.34375 11.375 7.75C11.375 10.1836 9.40625 12.125 7 12.125ZM7 5.125C5.52344 5.125 4.375 6.30078 4.375 7.75C4.375 9.22656 5.52344 10.375 7 10.375C8.44922 10.375 9.625 9.22656 9.625 7.75C9.625 6.30078 8.44922 5.125 7 5.125ZM7 9.5C6.01562 9.5 5.25 8.73438 5.25 7.75C5.25 6.79297 6.01562 6 7 6C7.95703 6 8.75 6.79297 8.75 7.75C8.75 8.73438 7.95703 9.5 7 9.5Z" fill="#16072E"/>
</svg>
