<svg width="188" height="64" viewBox="0 0 188 64" fill="none" xmlns="http://www.w3.org/2000/svg">
<path d="M62.74 29.0001L68.004 9.40006H72.96L69.04 24.0441H73.072L73.716 21.6921H78.672L76.712 29.0001H62.74ZM83.9181 9.40006H97.8901L92.6261 29.0001H78.6541L83.9181 9.40006ZM88.9861 24.0441L90.9461 16.7081L91.5901 14.3561H87.5581L84.9541 24.0441H88.9861ZM95.2791 29.0001L100.543 9.40006H114.515L112.555 16.7081H107.571L108.215 14.3561H104.183L101.579 24.0441H105.611L106.255 21.6921H111.211L109.251 29.0001H95.2791ZM121.288 9.40006H126.272V29.0001H121.288V26.3121H117.2L115.772 29.0001H110.788L121.288 9.40006ZM119.86 21.3561H121.288V18.6681L119.86 21.3561ZM130.815 14.2441L132.103 9.40006H146.075L144.759 14.2441H140.279L136.331 29.0001H131.347L135.295 14.2441H130.815ZM142.611 29.0001L147.875 9.40006H152.831L147.595 29.0001H142.611ZM155.531 9.40006H169.503L164.239 29.0001H150.267L155.531 9.40006ZM160.599 24.0441L162.559 16.7081L163.203 14.3561H159.171L156.567 24.0441H160.599ZM172.156 9.40006H179.884V20.7681L182.908 9.40006H187.892L182.628 29.0001H174.9V17.6321L171.876 29.0001H166.892L172.156 9.40006Z" fill="#34CC36"/>
<path d="M62.74 29.0001L68.004 9.40006H72.96L69.04 24.0441H73.072L73.716 21.6921H78.672L76.712 29.0001H62.74ZM83.9181 9.40006H97.8901L92.6261 29.0001H78.6541L83.9181 9.40006ZM88.9861 24.0441L90.9461 16.7081L91.5901 14.3561H87.5581L84.9541 24.0441H88.9861ZM95.2791 29.0001L100.543 9.40006H114.515L112.555 16.7081H107.571L108.215 14.3561H104.183L101.579 24.0441H105.611L106.255 21.6921H111.211L109.251 29.0001H95.2791ZM121.288 9.40006H126.272V29.0001H121.288V26.3121H117.2L115.772 29.0001H110.788L121.288 9.40006ZM119.86 21.3561H121.288V18.6681L119.86 21.3561ZM130.815 14.2441L132.103 9.40006H146.075L144.759 14.2441H140.279L136.331 29.0001H131.347L135.295 14.2441H130.815ZM142.611 29.0001L147.875 9.40006H152.831L147.595 29.0001H142.611ZM155.531 9.40006H169.503L164.239 29.0001H150.267L155.531 9.40006ZM160.599 24.0441L162.559 16.7081L163.203 14.3561H159.171L156.567 24.0441H160.599ZM172.156 9.40006H179.884V20.7681L182.908 9.40006H187.892L182.628 29.0001H174.9V17.6321L171.876 29.0001H166.892L172.156 9.40006Z" fill="#34CC36"/>
<path d="M62.74 29.0001L68.004 9.40006H72.96L69.04 24.0441H73.072L73.716 21.6921H78.672L76.712 29.0001H62.74ZM83.9181 9.40006H97.8901L92.6261 29.0001H78.6541L83.9181 9.40006ZM88.9861 24.0441L90.9461 16.7081L91.5901 14.3561H87.5581L84.9541 24.0441H88.9861ZM95.2791 29.0001L100.543 9.40006H114.515L112.555 16.7081H107.571L108.215 14.3561H104.183L101.579 24.0441H105.611L106.255 21.6921H111.211L109.251 29.0001H95.2791ZM121.288 9.40006H126.272V29.0001H121.288V26.3121H117.2L115.772 29.0001H110.788L121.288 9.40006ZM119.86 21.3561H121.288V18.6681L119.86 21.3561ZM130.815 14.2441L132.103 9.40006H146.075L144.759 14.2441H140.279L136.331 29.0001H131.347L135.295 14.2441H130.815ZM142.611 29.0001L147.875 9.40006H152.831L147.595 29.0001H142.611ZM155.531 9.40006H169.503L164.239 29.0001H150.267L155.531 9.40006ZM160.599 24.0441L162.559 16.7081L163.203 14.3561H159.171L156.567 24.0441H160.599ZM172.156 9.40006H179.884V20.7681L182.908 9.40006H187.892L182.628 29.0001H174.9V17.6321L171.876 29.0001H166.892L172.156 9.40006Z" fill="#34CC36"/>
<path d="M57.965 52L62.289 35.9H73.766L72.662 39.971H65.279L64.75 41.903H68.729L67.625 45.997H63.669L62.059 52H57.965ZM70.88 52L75.204 35.9H79.275L74.974 52H70.88ZM79.6531 39.879L80.7111 35.9H92.1881L91.1071 39.879H87.4271L84.1841 52H80.0901L83.3331 39.879H79.6531ZM93.6669 35.9H100.015V45.238L102.499 35.9H106.593L102.269 52H95.9209V42.662L93.4369 52H89.3429L93.6669 35.9ZM104.459 52L108.783 35.9H120.26L119.156 39.971H111.773L111.244 41.903H115.223L114.119 45.997H110.163L109.634 47.929H117.04L115.936 52H104.459ZM119.298 45.997L122.012 35.9H133.489L132.408 39.879H125.025L124.473 41.903H131.879L129.165 52H117.688L118.792 47.929H126.175L126.704 45.997H119.298ZM132.864 45.997L135.578 35.9H147.055L145.974 39.879H138.591L138.039 41.903H145.445L142.731 52H131.254L132.358 47.929H139.741L140.27 45.997H132.864Z" fill="white"/>
<path d="M44.3953 7.44991C43.5458 6.58806 42.6457 5.79837 41.7054 5.07321C42.1498 6.49316 42.2854 8.00897 42.0768 9.51814L41.725 12.0619C48.9706 20.3994 48.6722 33.1657 40.8193 41.132L26.0062 56.1592L11.1931 41.132C7.23627 37.118 5.05715 31.7808 5.05715 26.1048C5.05715 20.8873 6.90224 15.9601 10.2715 12.0809L9.9169 9.51814C9.70919 8.01656 9.84205 6.50739 10.2818 5.09408C9.35083 5.81355 8.45916 6.59565 7.61708 7.44991C2.70496 12.433 0 19.0573 0 26.1048C0 33.1514 2.70589 39.7766 7.61708 44.7588L26.0062 63.4147L44.3953 44.7588C54.5349 34.4736 54.5349 17.736 44.3953 7.44991Z" fill="#34CC36"/>
<path d="M35.4728 8.69829L34.7255 14.0503C29.5709 10.1635 22.4306 10.1635 17.276 14.0531L16.5324 8.69829C16.396 7.72705 16.6826 6.74559 17.3221 6.00786C17.9579 5.26641 18.8784 4.84126 19.8533 4.84126H32.1519C33.1203 4.84126 34.0436 5.26641 34.6794 6.00786C35.3152 6.74559 35.6064 7.72705 35.4728 8.69829ZM32.3997 32.3121C30.6904 34.0379 28.42 34.9858 26.0021 34.9858C23.5889 34.9858 21.3184 34.0379 19.6091 32.3121C17.8998 30.5892 16.9599 28.2942 16.9599 25.8568C16.9599 23.4166 17.8998 21.1243 19.6091 19.3986C21.37 17.6199 23.6865 16.7305 26.0021 16.7305C28.3187 16.7305 30.6342 17.6199 32.3997 19.3986C35.9261 22.9589 35.9261 28.7519 32.3997 32.3121ZM38.8904 18.9502L40.2219 9.36997C40.5481 7.01166 39.8497 4.6273 38.3035 2.82902H38.3007C36.7508 1.03075 34.5099 -3.8147e-05 32.1519 -3.8147e-05H19.8533C17.4916 -3.8147e-05 15.2479 1.03075 13.7008 2.82902C12.1518 4.6273 11.4506 7.01166 11.7796 9.36997L13.111 18.9474C12.0016 21.0481 11.4146 23.4064 11.4146 25.8568C11.4146 29.7929 12.9313 33.4908 15.6874 36.2706C18.4444 39.054 22.1072 40.5853 26.0021 40.5853C29.9008 40.5853 33.5644 39.054 36.3205 36.2706C40.9554 31.5912 41.8133 24.5162 38.8904 18.9502Z" fill="#34CC36"/>
</svg>
