<svg width="188" height="64" viewBox="0 0 188 64" fill="none" xmlns="http://www.w3.org/2000/svg">
<path d="M62.74 29.0001L68.004 9.40006H72.96L69.04 24.0441H73.072L73.716 21.6921H78.672L76.712 29.0001H62.74ZM83.9181 9.40006H97.8901L92.6261 29.0001H78.6541L83.9181 9.40006ZM88.9861 24.0441L90.9461 16.7081L91.5901 14.3561H87.5581L84.9541 24.0441H88.9861ZM95.2791 29.0001L100.543 9.40006H114.515L112.555 16.7081H107.571L108.215 14.3561H104.183L101.579 24.0441H105.611L106.255 21.6921H111.211L109.251 29.0001H95.2791ZM121.288 9.40006H126.272V29.0001H121.288V26.3121H117.2L115.772 29.0001H110.788L121.288 9.40006ZM119.86 21.3561H121.288V18.6681L119.86 21.3561ZM130.815 14.2441L132.103 9.40006H146.075L144.759 14.2441H140.279L136.331 29.0001H131.347L135.295 14.2441H130.815ZM142.611 29.0001L147.875 9.40006H152.831L147.595 29.0001H142.611ZM155.531 9.40006H169.503L164.239 29.0001H150.267L155.531 9.40006ZM160.599 24.0441L162.559 16.7081L163.203 14.3561H159.171L156.567 24.0441H160.599ZM172.156 9.40006H179.884V20.7681L182.908 9.40006H187.892L182.628 29.0001H174.9V17.6321L171.876 29.0001H166.892L172.156 9.40006Z" fill="#34CC36"/>
<path d="M62.74 29.0001L68.004 9.40006H72.96L69.04 24.0441H73.072L73.716 21.6921H78.672L76.712 29.0001H62.74ZM83.9181 9.40006H97.8901L92.6261 29.0001H78.6541L83.9181 9.40006ZM88.9861 24.0441L90.9461 16.7081L91.5901 14.3561H87.5581L84.9541 24.0441H88.9861ZM95.2791 29.0001L100.543 9.40006H114.515L112.555 16.7081H107.571L108.215 14.3561H104.183L101.579 24.0441H105.611L106.255 21.6921H111.211L109.251 29.0001H95.2791ZM121.288 9.40006H126.272V29.0001H121.288V26.3121H117.2L115.772 29.0001H110.788L121.288 9.40006ZM119.86 21.3561H121.288V18.6681L119.86 21.3561ZM130.815 14.2441L132.103 9.40006H146.075L144.759 14.2441H140.279L136.331 29.0001H131.347L135.295 14.2441H130.815ZM142.611 29.0001L147.875 9.40006H152.831L147.595 29.0001H142.611ZM155.531 9.40006H169.503L164.239 29.0001H150.267L155.531 9.40006ZM160.599 24.0441L162.559 16.7081L163.203 14.3561H159.171L156.567 24.0441H160.599ZM172.156 9.40006H179.884V20.7681L182.908 9.40006H187.892L182.628 29.0001H174.9V17.6321L171.876 29.0001H166.892L172.156 9.40006Z" fill="#34CC36"/>
<path d="M62.74 29.0001L68.004 9.40006H72.96L69.04 24.0441H73.072L73.716 21.6921H78.672L76.712 29.0001H62.74ZM83.9181 9.40006H97.8901L92.6261 29.0001H78.6541L83.9181 9.40006ZM88.9861 24.0441L90.9461 16.7081L91.5901 14.3561H87.5581L84.9541 24.0441H88.9861ZM95.2791 29.0001L100.543 9.40006H114.515L112.555 16.7081H107.571L108.215 14.3561H104.183L101.579 24.0441H105.611L106.255 21.6921H111.211L109.251 29.0001H95.2791ZM121.288 9.40006H126.272V29.0001H121.288V26.3121H117.2L115.772 29.0001H110.788L121.288 9.40006ZM119.86 21.3561H121.288V18.6681L119.86 21.3561ZM130.815 14.2441L132.103 9.40006H146.075L144.759 14.2441H140.279L136.331 29.0001H131.347L135.295 14.2441H130.815ZM142.611 29.0001L147.875 9.40006H152.831L147.595 29.0001H142.611ZM155.531 9.40006H169.503L164.239 29.0001H150.267L155.531 9.40006ZM160.599 24.0441L162.559 16.7081L163.203 14.3561H159.171L156.567 24.0441H160.599ZM172.156 9.40006H179.884V20.7681L182.908 9.40006H187.892L182.628 29.0001H174.9V17.6321L171.876 29.0001H166.892L172.156 9.40006Z" fill="#34CC36"/>
<path d="M57.965 52.0001L62.289 35.9001H73.766L72.662 39.9711H65.279L64.75 41.9031H68.729L67.625 45.9971H63.669L62.059 52.0001H57.965ZM70.88 52.0001L75.204 35.9001H79.275L74.974 52.0001H70.88ZM79.6531 39.8791L80.7111 35.9001H92.1881L91.1071 39.8791H87.4271L84.1841 52.0001H80.0901L83.3331 39.8791H79.6531ZM93.6669 35.9001H100.015V45.2381L102.499 35.9001H106.593L102.269 52.0001H95.9209V42.6621L93.4369 52.0001H89.3429L93.6669 35.9001ZM104.459 52.0001L108.783 35.9001H120.26L119.156 39.9711H111.773L111.244 41.9031H115.223L114.119 45.9971H110.163L109.634 47.9291H117.04L115.936 52.0001H104.459ZM119.298 45.9971L122.012 35.9001H133.489L132.408 39.8791H125.025L124.473 41.9031H131.879L129.165 52.0001H117.688L118.792 47.9291H126.175L126.704 45.9971H119.298ZM132.864 45.9971L135.578 35.9001H147.055L145.974 39.8791H138.591L138.039 41.9031H145.445L142.731 52.0001H131.254L132.358 47.9291H139.741L140.27 45.9971H132.864Z" fill="#16072E"/>
<path d="M44.3953 7.44987C43.5458 6.58803 42.6457 5.79834 41.7054 5.07318C42.1498 6.49313 42.2854 8.00894 42.0768 9.51811L41.725 12.0619C48.9706 20.3994 48.6722 33.1657 40.8193 41.132L26.0062 56.1592L11.1931 41.132C7.23627 37.118 5.05715 31.7808 5.05715 26.1048C5.05715 20.8872 6.90224 15.9601 10.2715 12.0809L9.9169 9.51811C9.70919 8.01653 9.84205 6.50736 10.2818 5.09405C9.35083 5.81352 8.45916 6.59562 7.61708 7.44987C2.70496 12.433 0 19.0572 0 26.1048C0 33.1514 2.70589 39.7766 7.61708 44.7588L26.0062 63.4146L44.3953 44.7588C54.5349 34.4736 54.5349 17.736 44.3953 7.44987Z" fill="#34CC36"/>
<path d="M35.4727 8.69832L34.7254 14.0503C29.5708 10.1635 22.4305 10.1636 17.2759 14.0531L16.5323 8.69832C16.3959 7.72708 16.6825 6.74562 17.322 6.00789C17.9578 5.26644 18.8783 4.84129 19.8532 4.84129H32.1518C33.1202 4.84129 34.0435 5.26644 34.6793 6.00789C35.3151 6.74562 35.6063 7.72708 35.4727 8.69832ZM32.3996 32.3122C30.6904 34.0379 28.4199 34.9859 26.002 34.9859C23.5888 34.9859 21.3183 34.0379 19.609 32.3122C17.8997 30.5893 16.9598 28.2942 16.9598 25.8568C16.9598 23.4166 17.8997 21.1244 19.609 19.3987C21.3699 17.6199 23.6864 16.7305 26.002 16.7305C28.3186 16.7305 30.6341 17.6199 32.3996 19.3987C35.926 22.9589 35.926 28.7519 32.3996 32.3122ZM38.8904 18.9502L40.2219 9.37C40.548 7.01169 39.8496 4.62733 38.3034 2.82905H38.3006C36.7507 1.03078 34.5098 -7.62939e-06 32.1518 -7.62939e-06H19.8532C17.4915 -7.62939e-06 15.2478 1.03078 13.7007 2.82905C12.1517 4.62733 11.4505 7.01169 11.7795 9.37L13.111 18.9475C12.0015 21.0481 11.4146 23.4064 11.4146 25.8568C11.4146 29.7929 12.9313 33.4909 15.6873 36.2706C18.4443 39.0541 22.1071 40.5854 26.002 40.5854C29.9007 40.5854 33.5644 39.0541 36.3204 36.2706C40.9553 31.5912 41.8132 24.5162 38.8904 18.9502Z" fill="#34CC36"/>
</svg>
