<svg xmlns="http://www.w3.org/2000/svg" width="16" height="22" fill="none"><path fill="#16072E" d="M7.875 4.563c-2.174 0-3.938 1.804-3.938 3.937a3.939 3.939 0 0 0 3.938 3.938c2.133 0 3.938-1.764 3.938-3.938 0-2.133-1.805-3.938-3.938-3.938Zm0 6.562A2.591 2.591 0 0 1 5.25 8.5a2.617 2.617 0 0 1 2.625-2.625A2.643 2.643 0 0 1 10.5 8.5a2.617 2.617 0 0 1-2.625 2.625Zm0-10.5A7.85 7.85 0 0 0 0 8.5c0 3.2 1.066 4.102 7.055 12.715a.958.958 0 0 0 1.6 0c5.988-8.613 7.095-9.516 7.095-12.715A7.877 7.877 0 0 0 7.875.625Zm0 19.441c-5.742-8.244-6.563-8.9-6.563-11.566 0-1.723.657-3.363 1.887-4.635 1.272-1.23 2.912-1.928 4.676-1.928 1.723 0 3.363.698 4.635 1.928 1.23 1.272 1.928 2.912 1.928 4.635 0 2.666-.862 3.322-6.563 11.566Z"/></svg>