<svg xmlns="http://www.w3.org/2000/svg" width="30" height="45" fill="none"><path fill="#011936" d="m24.742 8.84-.768 5.44c-5.302-3.95-12.645-3.95-17.946.003l-.765-5.442a3.414 3.414 0 0 1 .812-2.735A3.44 3.44 0 0 1 8.68 4.921h12.648c.996 0 1.945.432 2.6 1.185a3.44 3.44 0 0 1 .815 2.735Zm-3.16 24.001a9.25 9.25 0 0 1-6.58 2.718 9.247 9.247 0 0 1-6.575-2.718 9.202 9.202 0 0 1-2.724-6.56c0-2.48.967-4.81 2.724-6.565a9.279 9.279 0 0 1 6.575-2.712c2.383 0 4.764.904 6.58 2.712 3.626 3.619 3.626 9.507 0 13.125Zm6.675-13.58 1.37-9.738a8.36 8.36 0 0 0-1.974-6.648h-.003A8.388 8.388 0 0 0 21.327 0H8.679A8.385 8.385 0 0 0 2.35 2.875 8.34 8.34 0 0 0 .375 9.523l1.37 9.735A14.852 14.852 0 0 0 0 26.28c0 4 1.56 7.76 4.394 10.585C7.23 39.694 9.375 41.25 15.002 45c5.623-3.75 7.777-5.306 10.612-8.135 4.767-4.757 5.649-11.947 2.643-17.604Z"/></svg>