<svg width="18" height="19" viewBox="0 0 18 19" fill="none" xmlns="http://www.w3.org/2000/svg">
<path d="M15.75 2.5H13.4648C12.4102 1.16406 10.8281 0.25 9 0.25C7.13672 0.25 5.55469 1.16406 4.5 2.5H2.25C0.984375 2.5 0 3.51953 0 4.75V16C0 17.2656 0.984375 18.25 2.25 18.25H15.75C16.9805 18.25 18 17.2656 18 16V4.75C18 3.51953 16.9805 2.5 15.75 2.5ZM9 1.9375C11.1445 1.9375 12.9375 3.73047 12.9375 5.875C12.9375 8.05469 11.1445 9.8125 9 9.8125C6.82031 9.8125 5.0625 8.05469 5.0625 5.875C5.0625 3.73047 6.82031 1.9375 9 1.9375ZM16.3125 16C16.3125 16.3164 16.0312 16.5625 15.75 16.5625H2.25C1.93359 16.5625 1.6875 16.3164 1.6875 16V4.75C1.6875 4.46875 1.93359 4.1875 2.25 4.1875H3.65625C3.48047 4.75 3.375 5.3125 3.375 5.875C3.375 9.00391 5.87109 11.5 9 11.5C12.0938 11.5 14.625 9.00391 14.625 5.875C14.625 5.3125 14.4844 4.75 14.3086 4.1875H15.75C16.0312 4.1875 16.3125 4.46875 16.3125 4.75V16ZM9 8.6875C9.59766 8.6875 10.125 8.19531 10.125 7.5625C10.125 7.28125 9.98438 7.03516 9.80859 6.85938L10.6523 4.39844C10.8633 3.66016 9.80859 3.30859 9.5625 4.01172L8.75391 6.50781C8.22656 6.61328 7.875 7.03516 7.875 7.5625C7.875 8.19531 8.36719 8.6875 9 8.6875Z" fill="#16072E"/>
</svg>
