<svg width="18" height="17" viewBox="0 0 18 17" fill="none" xmlns="http://www.w3.org/2000/svg">
<path d="M13.5 8.25C12.8672 8.25 12.375 8.77734 12.375 9.375C12.375 10.0078 12.8672 10.5 13.5 10.5C14.0977 10.5 14.625 10.0078 14.625 9.375C14.625 8.77734 14.0977 8.25 13.5 8.25ZM16.3125 2.625H15.75V2.0625C15.75 1.14844 14.9766 0.375 14.0625 0.375H3.375C1.47656 0.375 0 1.88672 0 3.75V12.75C0 14.6484 1.47656 16.125 3.375 16.125H15.75C16.9805 16.125 18 15.1406 18 13.875V4.3125C18 3.39844 17.2266 2.625 16.3125 2.625ZM16.875 13.875C16.875 14.5078 16.3477 15 15.75 15H3.375C2.10938 15 1.125 14.0156 1.125 12.75V3.75C1.125 2.51953 2.10938 1.5 3.375 1.5H14.0625C14.3438 1.5 14.625 1.78125 14.625 2.0625V2.625H3.9375C3.62109 2.625 3.375 2.90625 3.375 3.1875C3.375 3.50391 3.62109 3.75 3.9375 3.75H16.3125C16.5938 3.75 16.875 4.03125 16.875 4.3125V13.875Z" fill="#16072E"/>
</svg>
